<svg width="12" height="18" viewBox="0 0 12 18" fill="none" xmlns="http://www.w3.org/2000/svg">
<path d="M5.9995 0C2.69149 0 0 2.86745 0 6.39186C0 9.1477 3.71449 14.6607 5.3008 17.0148C5.46704 17.2613 5.61009 17.4738 5.7233 17.6448C5.78353 17.7356 5.88761 17.7906 5.99954 17.7906C6.11146 17.7906 6.21554 17.7356 6.27577 17.6448C6.38867 17.4744 6.53135 17.2625 6.69695 17.0167C8.28386 14.6619 12 9.14739 12 6.39186C12 2.86714 9.30819 0 5.9995 0ZM5.99954 10C5.99954 7.48013 5.97222 7.08445 5.99954 10C6.0516 10.0773 5.97218 7.08013 5.99954 10C5.97049 6.89897 3.6 8.96196 3.6 6.39155L5.9995 4.4L8 6.39155C7.99968 8.96165 5.97218 7.08013 5.99954 10Z" fill="#727272"/>
</svg>
