<svg width="36" height="33" viewBox="0 0 36 33" fill="none" xmlns="http://www.w3.org/2000/svg">
<path d="M10.536 26.2022C8.60438 26.2022 7.02398 27.6607 7.02398 29.4432C7.02398 31.2257 8.60438 32.6842 10.536 32.6842C12.4676 32.6842 14.048 31.2257 14.048 29.4432C14.048 27.6607 12.4676 26.2022 10.536 26.2022ZM0 0.274414V3.51539H3.51199L9.83358 15.8311L7.37518 19.7203C7.19958 20.2064 7.02398 20.8546 7.02398 21.3408C7.02398 23.1233 8.60438 24.5817 10.536 24.5817H31.6079V21.3408H11.2384C11.0628 21.3408 10.8872 21.1787 10.8872 21.0167V20.8545L12.4676 18.0997H25.4619C26.8667 18.0997 27.9203 17.4515 28.4471 16.4792L34.7687 5.94612C35.1199 5.62202 35.1199 5.45997 35.1199 5.13588C35.1199 4.16358 34.4175 3.51539 33.3639 3.51539H7.37518L5.79479 0.274414H0ZM28.0959 26.2022C26.1643 26.2022 24.5839 27.6607 24.5839 29.4432C24.5839 31.2257 26.1643 32.6842 28.0959 32.6842C30.0275 32.6842 31.6079 31.2257 31.6079 29.4432C31.6079 27.6607 30.0275 26.2022 28.0959 26.2022Z" fill="#4D6DAB"/>
</svg>
