<svg width="25" height="19" viewBox="0 0 25 19" fill="none" xmlns="http://www.w3.org/2000/svg">
<path d="M18.3 7.46247C18.3 3.75013 14.2027 0.740723 9.15 0.740723C4.0966 0.740723 0 3.75013 0 7.46247C0 9.69347 1.47961 11.67 3.75728 12.8926C3.75073 12.912 1.94272 16.1593 1.94272 16.1593C1.94272 16.1593 7.46359 14.0807 7.47888 14.0721C8.02063 14.1461 8.57912 14.1835 9.15 14.1835C14.2027 14.1835 18.3 11.1741 18.3 7.46247ZM25.0376 9.56266C25.0376 5.85104 21.1806 2.86822 17.0053 2.84163C22.9908 8.72675 15.9415 14.9971 10.1964 14.9971C10.1964 14.9971 10.8349 16.2837 15.8876 16.2837C16.4578 16.2837 17.017 16.2449 17.5587 16.1716C17.574 16.1816 23.0956 18.2588 23.0956 18.2588C23.0956 18.2588 21.2869 15.0122 21.2811 14.9928C23.558 13.7702 25.0376 11.7929 25.0376 9.56266Z" fill="#4D6DAB"/>
</svg>
