<svg width="16" height="16" viewBox="0 0 16 16" fill="none" xmlns="http://www.w3.org/2000/svg">
<path d="M0 0H5V8H0V0ZM2.5 3.5C3.1 3.5 3.5 3.1 3.5 2.5C3.5 1.9 3.1 1.5 2.5 1.5C1.9 1.5 1.5 1.9 1.5 2.5C1.5 3.1 1.9 3.5 2.5 3.5Z" fill="#444444"/>
<path d="M9.6 6.8C9.6 6.8 10.1 7.3 10 8.4C10 9.9 8.4 10 8.4 10H6C5.8 10 5.7 10.2 5.7 10.4C6 11.1 6.5 12.5 6.3 13.5C6 14.9 4.8 15 4.4 15C4.3 15 4.2 14.9 4.2 14.8L3.2 12C3.2 12 3.2 11.9 3.1 11.9L0.5 9.1C0.4 9 0.3 9 0.2 9H0V2H0.2C0.9 2 3.4 0 5.6 0C7.8 0 8.3 0.3 8.7 1C9.1 1.7 8.8 2.3 8.8 2.3C8.8 2.3 9.3 2.6 9.4 3.3C9.5 4 9.3 4.4 9.3 4.4C9.3 4.4 9.8 4.8 9.8 5.6C9.9 6.5 9.6 6.8 9.6 6.8Z" fill="#444444" transform="translate(6,0)"/>
</svg>
