<svg width="16" height="16" viewBox="0 0 16 16" fill="none" xmlns="http://www.w3.org/2000/svg">
<g clip-path="url(#clip0)">
<path d="M15.6 8.2C15.6 8.2 16.1 7.7 16 6.6C16 5.1 14.4 5 14.4 5H12C11.8 5 11.7 4.8 11.7 4.6C12 3.9 12.5 2.5 12.3 1.5C12 0.1 10.8 0 10.4 0C10.3 0 10.2 0.1 10.2 0.2L9.2 3C9.2 3 9.2 3.1 9.1 3.1L6.5 5.9C6.4 6 6.3 6 6.2 6H6V13H6.2C6.9 13 9.4 15 11.6 15C13.8 15 14.3 14.7 14.7 14C15.1 13.3 14.8 12.7 14.8 12.7C14.8 12.7 15.3 12.4 15.4 11.7C15.5 11 15.3 10.6 15.3 10.6C15.3 10.6 15.8 10.2 15.8 9.4C15.9 8.5 15.6 8.2 15.6 8.2Z" fill="#E1BD00"/>
<path d="M0 14H5V6H0V14ZM2.5 10.5C3.1 10.5 3.5 10.9 3.5 11.5C3.5 12.1 3.1 12.5 2.5 12.5C1.9 12.5 1.5 12.1 1.5 11.5C1.5 10.9 1.9 10.5 2.5 10.5Z" fill="#E1BD00"/>
</g>
<defs>
<clipPath id="clip0">
<rect width="16" height="16" fill="white"/>
</clipPath>
</defs>
</svg>
