<svg width="36" height="31" viewBox="0 0 36 31" fill="none" xmlns="http://www.w3.org/2000/svg">
    <path d="M17.4712 6.58794L17.9134 7.42422L18.3553 6.58788C19.4629 4.49204 20.541 2.98042 21.8532 1.98737C23.1497 1.00617 24.7171 0.5 26.8691 0.5C31.5748 0.5 35.3364 4.09707 35.3364 8.4725C35.3364 12.5069 33.2112 15.7088 29.8817 19.0015C28.2174 20.6474 26.2724 22.2967 24.1691 24.0755L24.0565 24.1708C22.0973 25.8276 20.0088 27.5938 17.9133 29.5551C15.8211 27.5972 13.7366 25.8336 11.7811 24.1791L11.6587 24.0756C9.55633 22.2968 7.61261 20.6475 5.94962 19.0017C2.62277 15.7091 0.5 12.5071 0.5 8.47258C0.5 4.09677 4.26193 0.500078 8.95664 0.500078C11.1087 0.500078 12.6761 1.00623 13.9727 1.98743C15.285 2.98047 16.3632 4.49208 17.4712 6.58794Z" stroke="#AAA"/>
</svg>
