<svg width="34" height="34" viewBox="0 0 34 34" fill="none" xmlns="http://www.w3.org/2000/svg">
<path d="M9.0015 0C4.14433 0 0.173828 3.73694 0.173828 8.3084C0.173828 12.8799 4.14433 16.6168 9.0015 16.6168C13.8587 16.6168 17.8292 12.8799 17.8292 8.3084C17.8292 3.73694 13.8587 0 9.0015 0Z" fill="#000"  transform="translate(7,0)"/>
<path d="M31.1523 6.25605C30.921 5.71181 30.6126 5.20389 30.2657 4.73222C28.4924 2.26507 25.7555 0.632428 22.6716 0.233331C22.2862 0.197081 21.8621 0.269582 21.5537 0.48729C19.9346 1.61201 18.0072 2.1925 16.0026 2.1925C13.9981 2.1925 12.0707 1.61201 10.4516 0.48729C10.1432 0.269582 9.71914 0.160761 9.33369 0.233331C6.24978 0.632428 3.4743 2.26507 1.73962 4.73222C1.39269 5.20389 1.08427 5.74813 0.853024 6.25605C0.737403 6.47375 0.775919 6.72771 0.891539 6.94542C1.19996 7.45334 1.58541 7.96132 1.93235 8.39667C2.47201 9.08605 3.05026 9.70278 3.70561 10.2833C4.24528 10.7912 4.86204 11.2629 5.47888 11.7345C8.5242 13.8751 12.1864 14.9998 15.9641 14.9998C19.7419 14.9998 23.4041 13.8751 26.4494 11.7345C27.0662 11.2992 27.6829 10.7912 28.2227 10.2833C28.8394 9.70278 29.4562 9.08598 29.9959 8.39667C30.3814 7.925 30.7284 7.45334 31.0367 6.94542C31.2294 6.72771 31.2679 6.47368 31.1523 6.25605Z" fill="#000" transform="translate(0,17)"/>
</svg>
