<svg width="36" height="34" viewBox="0 0 36 34" fill="none" xmlns="http://www.w3.org/2000/svg">
<path d="M29.7842 11.2085L35.2274 9.78051C35.7887 9.63329 36.1172 9.08424 35.9614 8.55412C35.8055 8.02413 35.2242 7.71368 34.6628 7.86097L27.8965 9.63601L27.8954 9.63628L19.0547 11.9555V0.997073C19.0547 0.446962 18.5825 0.000976562 18 0.000976562C17.4175 0.000976562 16.9453 0.446962 16.9453 0.997073V12.509L7.56251 14.9704L7.56152 14.9707L0.772698 16.7517C0.211533 16.8989 -0.117108 17.4479 0.0387046 17.9781C0.168361 18.4189 0.592417 18.7077 1.05437 18.7077C1.14775 18.7077 1.24281 18.6959 1.33717 18.6711L5.569 17.561L0.150572 26.0908C0.0522749 26.2455 0.000313853 26.4227 0.000313853 26.6032C0.000313853 30.6821 3.51405 34.0005 7.83293 34.0005C12.152 34.0005 15.6656 30.6821 15.6656 26.6032C15.6656 26.4227 15.6137 26.2455 15.5153 26.0907L9.45005 16.5428L25.903 12.2267L20.4846 20.7563C20.3863 20.9112 20.3342 21.0883 20.3342 21.2688C20.3342 25.3478 23.848 28.6662 28.1669 28.6662C30.259 28.6662 32.2259 27.8966 33.7054 26.4994C35.1849 25.1021 35.9996 23.2445 35.9995 21.2686C35.9996 21.0881 35.9477 20.911 35.8493 20.7562L29.7842 11.2085ZM12.7484 25.6071H2.91773L7.833 17.8693L12.7484 25.6071ZM23.2516 20.2726L28.167 12.535L33.0824 20.2726H23.2516Z" fill="#4D6DAB"/>
</svg>
